<svg version="1.0" xmlns="http://www.w3.org/2000/svg" viewBox="0 0 500.000000 500.000000"
 preserveAspectRatio="xMidYMid meet">

<g transform="translate(0.000000,500.000000) scale(0.100000,-0.100000)"
fill="#000000" stroke="none">
<path d="M837 4763 c-4 -3 -7 -674 -7 -1490 l0 -1483 275 0 275 0 1 648 1 647
216 -653 216 -652 288 2 288 3 218 650 217 650 3 -652 2 -653 270 0 270 0 0
1495 0 1495 -259 0 c-142 0 -271 -3 -287 -6 -29 -6 -31 -12 -374 -1049 -189
-574 -347 -1042 -350 -1040 -3 2 -158 470 -345 1040 -301 918 -343 1038 -363
1046 -27 10 -545 12 -555 2z m776 -975 c157 -475 329 -999 384 -1165 54 -166
101 -303 105 -303 7 0 167 481 610 1833 l163 497 192 0 193 0 0 -1380 0 -1380
-162 2 -163 3 -5 933 -5 933 -92 -278 c-50 -153 -189 -574 -308 -935 l-216
-658 -208 0 -207 0 -310 940 -309 940 -5 -937 -5 -938 -160 0 -160 0 -3 1378
-2 1377 194 0 195 0 284 -862z"/>
<path d="M3620 3280 l0 -1490 275 0 275 0 -2 1488 -3 1487 -272 3 -273 2 0
-1490z m430 -10 l0 -1380 -160 0 -160 0 0 1380 0 1380 160 0 160 0 0 -1380z"/>
<path d="M710 1355 l0 -205 1790 0 1790 0 0 205 0 205 -1790 0 -1790 0 0 -205z"/>
<path d="M1870 894 c-45 -20 -86 -59 -113 -109 -20 -36 -22 -55 -22 -200 0
-145 2 -164 22 -200 45 -85 109 -119 223 -119 54 1 88 6 123 22 l47 21 0 150
0 151 -90 0 -90 0 0 -35 0 -35 50 0 50 0 0 -85 c0 -95 -4 -101 -82 -111 -33
-4 -54 0 -88 18 -69 35 -80 66 -80 223 0 148 11 184 69 222 41 28 132 31 188
8 19 -8 37 -15 38 -15 2 0 8 15 14 32 10 28 9 35 -6 45 -46 35 -191 44 -253
17z"/>
<path d="M3923 885 c-56 -28 -95 -77 -112 -140 -6 -22 -11 -95 -11 -162 0 -98
4 -133 20 -176 36 -95 107 -140 220 -140 77 0 131 24 178 77 43 50 52 91 52
251 0 126 -3 145 -24 190 -42 89 -102 125 -209 125 -47 0 -76 -6 -114 -25z
m194 -75 c53 -32 67 -70 71 -199 3 -72 0 -129 -8 -155 -24 -82 -100 -128 -177
-107 -95 26 -113 65 -113 241 0 144 7 169 60 214 40 33 118 36 167 6z"/>
<path d="M740 585 l0 -315 40 0 40 0 2 272 3 273 60 -272 60 -273 47 0 c41 0
48 3 53 23 3 12 30 131 59 265 30 134 57 246 60 249 3 4 6 -116 6 -265 l0
-272 40 0 40 0 0 315 0 315 -69 0 c-58 0 -71 -3 -75 -17 -2 -10 -28 -127 -57
-261 -29 -133 -56 -237 -59 -230 -4 7 -31 124 -60 261 l-54 247 -68 0 -68 0 0
-315z"/>
<path d="M1340 585 l0 -315 165 0 165 0 0 40 0 40 -125 0 -125 0 0 105 0 105
110 0 110 0 0 40 0 40 -110 0 -110 0 0 90 0 89 123 3 122 3 3 38 3 37 -165 0
-166 0 0 -315z"/>
<path d="M2387 893 c-3 -5 -41 -138 -86 -298 -45 -159 -84 -298 -87 -307 -5
-15 1 -18 38 -18 l44 0 23 90 24 90 103 0 c89 0 103 -2 108 -17 2 -10 14 -51
26 -90 l21 -73 41 0 c37 0 40 2 35 23 -4 12 -43 154 -89 314 l-83 293 -57 0
c-31 0 -59 -3 -61 -7z m116 -270 l25 -93 -79 0 c-43 0 -79 3 -79 8 0 4 17 70
37 146 l37 140 17 -55 c9 -29 28 -96 42 -146z"/>
<path d="M2740 585 l0 -315 45 0 45 0 0 315 0 315 -45 0 -45 0 0 -315z"/>
<path d="M2920 585 l0 -315 40 0 40 0 0 257 c0 141 4 253 8 247 5 -5 51 -120
102 -256 l93 -248 58 0 59 0 0 315 0 315 -40 0 -40 0 -2 -252 -3 -253 -96 250
-97 250 -61 3 -61 3 0 -316z"/>
<path d="M3410 585 l0 -315 45 0 45 0 0 145 0 145 105 0 105 0 0 40 0 40 -105
0 -105 0 0 90 0 90 120 0 120 0 0 40 0 40 -165 0 -165 0 0 -315z"/>
</g>
</svg>
