<?xml version="1.0" encoding="utf-8"?>
<svg viewBox="0 0 1350 1350" xmlns="http://www.w3.org/2000/svg">
  <defs>
    <linearGradient gradientUnits="userSpaceOnUse" x1="7938.774" y1="9933.362" x2="7938.774" y2="10313.362" id="gradient-6" gradientTransform="matrix(-0.397321, -0.917679, 0.037642, -0.016297, 10854.392811, 17521.238197)">
      <stop offset="0" style="stop-color: rgb(18, 145, 145);"/>
      <stop offset="1" style=""/>
    </linearGradient>
    <linearGradient gradientUnits="userSpaceOnUse" x1="6645.197" y1="3749.526" x2="6645.197" y2="9969.172" id="gradient-0">
      <stop offset="0" style="stop-color: rgb(0% 100% 100%)"/>
      <stop offset="1" style="stop-color: rgb(0% 58.034% 58.238%)"/>
    </linearGradient>
    <linearGradient gradientUnits="userSpaceOnUse" x1="6655" y1="7755.386" x2="6655" y2="8860" id="gradient-3" gradientTransform="matrix(0.999987, -0.005178, 0.02796, 5.399079, -237.343454, -37963.33954)">
      <stop offset="0" style="stop-color: rgb(0% 100% 100%)"/>
      <stop offset="1" style="stop-color: rgb(0% 58.034% 58.238%)"/>
    </linearGradient>
    <linearGradient gradientUnits="userSpaceOnUse" x1="4239.5" y1="9100" x2="4239.5" y2="9750" id="gradient-5" gradientTransform="matrix(0.653394, -0.75702, 0.017206, 0.014851, 1310.341252, 12512.040678)">
      <stop offset="0" style=""/>
      <stop offset="1" style="stop-color: rgb(17, 156, 156);"/>
    </linearGradient>
    <linearGradient gradientUnits="userSpaceOnUse" x1="3396.385" y1="7680" x2="3396.385" y2="8640.054" id="gradient-8" gradientTransform="matrix(0.893462, -0.44914, 0.009985, 0.019862, 283.567552, 9572.130529)">
      <stop offset="0" style=""/>
      <stop offset="1" style="stop-color: rgb(0, 177, 177);"/>
    </linearGradient>
    <linearGradient gradientUnits="userSpaceOnUse" x1="8115" y1="4875" x2="8115" y2="7400" id="gradient-1" gradientTransform="matrix(0.999994, 0.003532, -0.008154, 2.308802, 50.099028, -7345.922816)">
      <stop offset="0" style="stop-color: rgb(0% 100% 100%)"/>
      <stop offset="1" style="stop-color: rgb(0% 58.034% 58.238%)"/>
    </linearGradient>
    <linearGradient gradientUnits="userSpaceOnUse" x1="5185" y1="4890" x2="5185" y2="7240" id="gradient-2" gradientTransform="matrix(0.99996, -0.00894, 0.021905, 2.450074, -137.790817, -7960.773789)">
      <stop offset="0" style="stop-color: rgb(0% 100% 100%)"/>
      <stop offset="1" style="stop-color: rgb(0% 58.034% 58.238%)"/>
    </linearGradient>
    <linearGradient gradientUnits="userSpaceOnUse" x1="11140" y1="5780" x2="11140" y2="6990" id="gradient-9" gradientTransform="matrix(-0.99979, 0.020476, -0.000244, -0.011919, 22755.12382, 5980.627522)">
      <stop offset="0" style=""/>
      <stop offset="1" style="stop-color: rgb(12, 198, 199);"/>
    </linearGradient>
    <linearGradient gradientUnits="userSpaceOnUse" x1="6655.5" y1="4890" x2="6655.5" y2="6409.02" id="gradient-4" gradientTransform="matrix(0.999999, 0.001716, -0.006777, 3.948194, 33.151564, -15457.598752)">
      <stop offset="0" style="stop-color: rgb(0% 100% 100%)"/>
      <stop offset="1" style="stop-color: rgb(0% 58.034% 58.238%)"/>
    </linearGradient>
    <linearGradient gradientUnits="userSpaceOnUse" x1="2542.675" y1="4620" x2="2542.675" y2="6342" id="gradient-7" gradientTransform="matrix(0.905619, 0.424093, -0.003706, 0.007915, 1327.654983, 3839.20233)">
      <stop offset="0" style="stop-color: rgb(0, 233, 233);"/>
      <stop offset="1" style=""/>
    </linearGradient>
  </defs>
  <g transform="matrix(0.10000000149011612, 0, 0, -0.10000000149011612, 0, 1350.0001220703127)" fill="#000000" stroke="none">
    <path d="M8110 11520 l0 -110 130 0 130 0 0 -355 0 -355 35 0 35 0 0 390 0 390 -130 0 -130 0 0 75 0 75 -35 0 -35 0 0 -110z"/>
    <path d="M7019 11340 c-141 -24 -219 -126 -219 -284 0 -104 23 -172 75 -222 54 -52 117 -74 215 -74 90 0 157 18 223 59 l47 31 0 105 0 105 -125 0 -125 0 0 -45 0 -45 70 0 c68 0 70 -1 70 -26 0 -61 -48 -87 -160 -88 -75 -1 -107 15 -142 73 -20 31 -23 48 -21 124 2 104 19 140 79 174 66 38 137 28 201 -27 40 -35 57 -37 101 -10 32 20 32 21 17 50 -36 70 -189 120 -306 100z"/>
    <path d="M5560 11050 l0 -290 55 0 55 0 2 212 3 212 49 -159 c69 -225 81 -251 118 -259 17 -3 36 -6 42 -6 7 0 40 91 77 207 l64 207 5 -205 5 -204 58 -3 57 -3 0 292 0 292 -82 -8 c-90 -7 -98 -10 -98 -29 0 -23 -111 -356 -118 -356 -5 0 -35 87 -69 193 l-61 192 -81 3 -81 3 0 -291z"/>
    <path d="M6260 11050 l0 -290 230 0 230 0 0 50 0 50 -176 0 -177 0 7 53 c3 28 6 62 6 74 0 22 2 23 153 25 l152 3 3 43 3 42 -162 0 -161 0 7 68 c4 37 9 69 12 72 2 3 76 7 164 9 l159 3 0 44 0 44 -225 0 -225 0 0 -290z"/>
    <path d="M7631 11318 c-216 -596 -208 -558 -121 -558 l46 0 22 75 22 76 112 -3 111 -3 22 -65 c21 -63 23 -65 61 -72 58 -10 77 -2 69 30 -23 93 -180 510 -197 525 -14 12 -37 17 -79 17 -53 0 -60 -3 -68 -22z m145 -310 c-6 -4 -39 -8 -73 -8 -45 0 -63 4 -63 13 0 12 46 153 66 201 6 15 16 -6 44 -90 26 -75 34 -111 26 -116z"/>
    <path d="M4370 11080 c-24 -24 -26 -78 -5 -106 12 -16 14 -76 15 -356 l0 -338 40 0 40 0 0 335 c0 322 1 336 20 355 12 12 20 33 20 55 0 22 -8 43 -20 55 -12 12 -33 20 -55 20 -22 0 -43 -8 -55 -20z"/>
    <path d="M9030 11035 l0 -35 -115 0 -115 0 0 -590 c0 -324 -3 -590 -7 -590 -9 0 -41 19 -238 138 l-150 92 -52 -103 c-29 -56 -52 -108 -52 -115 -1 -7 65 -55 146 -108 250 -163 441 -315 650 -517 77 -74 106 -96 118 -90 8 5 53 42 100 83 l84 75 -51 52 -52 53 1197 0 1197 0 0 45 0 45 -1245 0 -1244 0 -151 130 -150 131 0 594 0 595 65 0 65 0 0 -35 c0 -34 1 -35 40 -35 l40 0 0 110 0 110 -40 0 c-39 0 -40 -1 -40 -35z"/>
    <path d="M4015 10973 c-13 -12 -15 -25 -10 -57 4 -23 9 -175 12 -338 l4 -298 44 0 45 0 0 291 c0 245 2 293 15 305 20 20 19 78 -1 98 -21 21 -88 21 -109 -1z"/>
    <path d="M4720 10835 l0 -45 55 0 55 0 0 -255 0 -255 50 0 50 0 0 255 0 255 50 0 50 0 0 45 0 45 -155 0 -155 0 0 -45z"/>
    <path d="M9396 10735 c-149 -53 -195 -257 -84 -372 115 -118 344 -53 389 111 12 44 5 85 -26 146 -56 110 -166 156 -279 115z m116 -105 c108 -30 102 -181 -9 -220 -38 -13 -46 -12 -78 3 -42 20 -75 70 -75 113 0 38 32 82 74 100 38 16 42 16 88 4z" style="fill-rule: nonzero; paint-order: fill; fill: rgb(0, 156, 156);"/>
    <path d="M10127 10723 c-4 -3 -7 -30 -7 -60 l0 -53 50 0 50 0 0 60 0 60 -43 0 c-24 0 -47 -3 -50 -7z" style="fill: rgb(46, 161, 161);"/>
    <path d="M2860 10625 l0 -55 50 0 50 0 0 55 0 55 -50 0 -50 0 0 -55z" style="fill: rgb(42, 161, 161);"/>
    <path d="M10969 10501 c-20 -20 -29 -39 -29 -61 0 -22 9 -41 29 -61 20 -20 39 -29 61 -29 22 0 41 9 61 29 20 20 29 39 29 61 0 22 -9 41 -29 61 -20 20 -39 29 -61 29 -22 0 -41 -9 -61 -29z"/>
    <path d="M6220 10485 c-205 -26 -438 -74 -620 -126 -113 -33 -338 -113 -382 -135 l-27 -14 18 -52 c34 -96 73 -178 86 -178 7 0 65 20 129 45 248 96 504 161 791 202 103 14 189 18 415 17 313 -1 491 -16 714 -61 150 -31 143 -34 176 77 36 123 36 115 -9 134 -59 23 -264 63 -421 80 -199 23 -723 29 -870 11z"/>
    <path d="M 7734 10283 C 7703 10209 7685 10121 7696 10102 C 7707 10085 8050 9941 8082 9940 C 8102 9940 8132 9993 8161 10079 C 8172 10109 8180 10135 8180 10136 C 8180 10149 7793 10320 7764 10320 C 7757 10320 7743 10303 7734 10283 Z" style="fill: url('#gradient-6');"/>
    <path d="M2090 9960 l0 -210 55 0 55 0 0 155 0 155 650 0 650 0 0 55 0 55 -705 0 -705 0 0 -210z"/>
    <path d="M10600 10095 l0 -55 55 0 55 0 0 55 0 55 -55 0 -55 0 0 -55z" style="fill: rgba(39, 171, 171, 0.392);"/>
    <path d="M10011 10056 c-87 -48 -50 -186 49 -186 51 0 100 49 100 99 0 75 -83 124 -149 87z"/>
    <path d="M6280 9959 c-316 -33 -721 -162 -1055 -338 -739 -388 -1314 -1088 -1550 -1887 -77 -259 -105 -462 -112 -812 -12 -570 58 -940 263 -1398 221 -491 583 -916 1039 -1218 635 -421 1326 -604 2061 -546 541 43 1151 276 1596 608 599 448 972 1014 1153 1754 19 78 35 149 35 159 0 20 -54 29 -176 29 l-83 0 -11 -42 c-122 -463 -230 -723 -407 -983 -104 -152 -193 -256 -357 -420 -369 -368 -743 -589 -1261 -745 -271 -81 -413 -100 -749 -100 -259 0 -390 12 -570 51 -400 88 -718 221 -1056 443 -640 421 -1050 1050 -1180 1811 -26 153 -40 503 -29 725 26 544 256 1141 606 1575 44 55 130 152 190 215 l110 115 8 -657 7 -658 363 0 362 0 139 -143 c77 -78 285 -300 464 -492 178 -193 380 -407 449 -478 l125 -127 24 22 c14 13 158 167 321 343 348 377 534 576 725 778 l139 147 342 0 342 0 5 613 c3 391 8 619 14 630 9 16 26 1 136 -116 150 -162 223 -251 310 -377 171 -248 295 -531 384 -877 53 -207 64 -317 71 -710 l6 -353 107 0 c76 0 112 4 126 14 18 13 19 31 22 278 4 334 -9 525 -48 710 -174 820 -640 1512 -1330 1970 -353 235 -826 416 -1250 478 -113 17 -183 20 -435 19 -165 -1 -338 -6 -385 -10z m558 -259 c270 -12 397 -35 651 -119 209 -69 379 -141 516 -217 133 -74 261 -160 269 -180 10 -25 145 123 -1324 -1442 l-303 -323 -22 23 c-12 13 -227 244 -477 513 -250 270 -595 640 -765 823 -171 184 -318 348 -326 365 -22 44 -11 58 104 133 368 242 951 430 1339 433 63 0 215 -4 338 -9z" style="fill: url('#gradient-0');"/>
    <path d="M6310 8485 l0 -375 149 -163 c201 -220 184 -207 222 -171 18 16 96 101 175 189 l144 160 0 368 0 367 -345 0 -345 0 0 -375z" style="fill: url('#gradient-3');"/>
    <path d="M4370 9708 c-85 -64 -237 -198 -362 -318 l-113 -108 90 -91 c49 -50 92 -91 96 -91 3 0 82 71 175 158 93 86 205 189 249 229 l79 71 -73 96 c-40 53 -76 96 -79 96 -4 0 -32 -19 -62 -42z" style="fill: url('#gradient-5');"/>
    <path d="M2900 9370 l0 -180 -405 0 -405 0 0 -65 0 -65 455 0 455 0 0 180 0 180 40 0 40 0 0 -242 c-1 -198 -3 -247 -15 -262 -23 -30 -18 -74 10 -101 71 -72 178 28 115 108 -19 24 -20 40 -20 261 l0 236 305 0 305 0 0 65 0 65 -440 0 -440 0 0 -180z"/>
    <path d="M11842 9267 c-28 -30 -28 -58 1 -85 30 -28 68 -28 95 1 28 30 28 58 -1 85 -30 28 -68 28 -95 -1z"/>
    <path d="M11434 9175 c-16 -12 -105 -14 -596 -15 l-578 0 0 -45 0 -45 588 -3 c323 -3 606 -8 629 -12 34 -6 44 -4 62 14 27 27 27 75 1 101 -24 24 -78 26 -106 5z"/>
    <path d="M11204 8815 c-16 -12 -85 -14 -436 -15 l-418 0 0 -45 0 -45 420 0 c273 1 427 -3 439 -10 30 -15 56 -12 85 11 68 54 -20 157 -90 104z"/>
    <path d="M2292 8738 c-28 -28 -7 -78 33 -78 27 0 45 18 45 45 0 27 -18 45 -45 45 -12 0 -26 -5 -33 -12z"/>
    <path d="M3452 8637 c-20 -23 -100 -194 -152 -322 -107 -265 -199 -556 -186 -590 6 -15 127 -45 185 -45 48 0 47 -1 91 135 48 148 128 348 214 539 42 93 76 173 76 178 0 4 -49 32 -109 63 -83 41 -112 51 -119 42z" style="fill: url('#gradient-8');"/>
    <path d="M9748 8583 c-67 -35 -94 -54 -96 -69 -2 -11 22 -79 51 -150 152 -360 231 -627 288 -971 l23 -143 969 0 968 0 -3 38 -3 37 -846 3 -847 2 -14 108 -14 107 26 6 c14 4 456 7 983 8 l957 1 0 45 0 45 -990 0 -989 0 -11 43 c-40 152 -137 467 -174 561 -51 131 -145 346 -159 364 -14 18 -17 17 -119 -35z"/>
    <path d="M2520 8395 l0 -45 245 0 245 0 0 45 0 45 -245 0 -245 0 0 -45z" style="fill: rgb(0, 175, 175);"/>
    <path d="M10190 8395 l0 -45 230 0 230 0 0 -95 0 -95 -80 0 -80 0 0 -45 0 -45 408 0 c342 -1 410 -3 426 -15 11 -8 30 -15 43 -15 32 0 73 43 73 75 0 32 -41 75 -73 75 -13 0 -32 -7 -43 -15 -16 -12 -70 -14 -306 -15 l-288 0 0 140 0 140 -270 0 -270 0 0 -45z"/>
    <path d="M10960 8395 l0 -45 270 0 270 0 0 45 0 45 -270 0 -270 0 0 -45z"/>
    <path d="M1220 8125 l0 -66 58 3 57 3 0 60 0 60 -57 3 -58 3 0 -66z" style="fill: rgb(0, 183, 183);"/>
    <path d="M1559 8101 c-35 -36 -39 -86 -9 -124 20 -25 20 -40 20 -976 l0 -951 595 0 595 0 0 55 0 55 -545 0 -545 0 0 896 c0 881 0 896 20 921 46 58 2 153 -70 153 -22 0 -41 -9 -61 -29z"/>
    <path d="M1911 7876 c-28 -16 -50 -52 -51 -84 0 -27 26 -82 40 -82 6 0 10 -231 10 -638 0 -483 3 -641 12 -650 9 -9 75 -12 235 -12 l223 0 0 45 0 45 -185 0 -185 0 -2 605 c-2 333 0 605 4 605 11 0 38 56 38 80 0 33 -26 75 -55 88 -33 15 -54 15 -84 -2z"/>
    <path d="M7682 6138 l3 -1263 65 0 c36 1 230 5 433 9 l367 9 0 1253 0 1254 -435 0 -435 0 2 -1262z" style="fill: url('#gradient-1');"/>
    <path d="M2150 7272 l0 -39 98 -6 c53 -4 258 -7 455 -7 l357 0 0 45 0 45 -455 0 -455 0 0 -38z"/>
    <path d="M4750 6065 l0 -1175 435 0 435 0 0 1175 0 1175 -435 0 -435 0 0 -1175z" style="fill: url('#gradient-2');"/>
    <path d="M11760 7057 c-7 -12 -19 -31 -26 -42 -12 -19 -1 -28 201 -160 l214 -140 0 -327 1 -328 50 0 50 0 0 353 0 352 -213 140 c-116 76 -223 147 -238 156 -24 17 -26 17 -39 -4z"/>
    <path d="M10420 6940 l0 -50 575 0 575 0 0 -555 0 -555 145 0 145 0 0 40 0 40 -100 0 -100 0 0 565 0 565 -620 0 -620 0 0 -50z" style="fill: url('#gradient-9');"/>
    <path d="M2508 6935 c-46 -31 -58 -52 -58 -105 0 -61 22 -95 74 -115 83 -32 141 -2 167 85 16 52 -11 106 -66 137 -51 29 -72 29 -117 -2z" style="fill: rgb(0, 202, 202);"/>
    <path d="M3033 6944 c-39 -20 -67 -74 -58 -114 8 -39 58 -80 96 -80 37 0 84 23 93 45 15 41 6 95 -21 124 -35 38 -69 46 -110 25z"/>
    <path d="M11264 6705 c-16 -12 -85 -14 -436 -15 l-418 0 0 -50 0 -50 418 0 c351 -1 420 -3 436 -15 49 -37 126 3 126 65 0 62 -77 102 -126 65z"/>
    <path d="M1210 6535 l0 -55 60 0 60 0 0 55 0 55 -60 0 -60 0 0 -55z" style="fill: rgb(0, 206, 207);"/>
    <path d="M6807 6247 l-158 -162 -154 160 c-127 132 -156 158 -167 147 -10 -11 -14 -155 -16 -757 l-4 -745 348 0 347 0 -7 703 c-6 668 -11 818 -25 816 -3 0 -77 -73 -164 -162z" style="fill: url('#gradient-4');"/>
    <path d="M11254 6365 c-16 -12 -109 -14 -630 -15 l-611 0 -23 -117 c-81 -428 -229 -815 -444 -1161 -209 -337 -566 -714 -909 -962 -63 -45 -87 -68 -84 -80 8 -31 119 -190 133 -190 7 0 53 27 101 60 420 283 832 753 1107 1263 l47 87 325 0 324 0 0 45 0 45 -300 0 c-165 0 -300 4 -300 8 0 4 20 52 44 107 81 186 170 504 208 748 l12 77 490 0 c416 -1 494 -3 510 -15 27 -21 62 -19 86 5 57 57 -22 144 -86 95z"/>
    <path d="M3024 6319 c3 -13 17 -91 31 -174 48 -283 121 -537 224 -777 22 -53 41 -99 41 -102 0 -4 -428 -6 -951 -6 l-951 0 -30 25 c-44 37 -91 34 -134 -9 -47 -47 -47 -95 0 -142 43 -43 90 -46 134 -9 l30 25 979 0 979 0 28 -57 c83 -172 261 -473 279 -473 12 0 150 95 171 118 26 30 18 53 -84 232 -257 454 -362 727 -455 1179 -19 96 -37 176 -38 177 -1 1 -60 5 -130 9 l-128 7 5 -23z" style="fill: url('#gradient-7');"/>
    <path d="M1837 5833 c-4 -3 -7 -24 -7 -45 l0 -38 365 0 365 0 0 45 0 45 -358 0 c-197 0 -362 -3 -365 -7z"/>
    <path d="M10700 5765 l0 -65 60 0 60 0 0 65 0 65 -60 0 -60 0 0 -65z" style="fill: rgb(0, 220, 220);"/>
    <path d="M10500 5760 l0 -60 55 0 55 0 0 60 0 60 -55 0 -55 0 0 -60z" style="fill: rgb(0, 220, 220);"/>
    <path d="M2677 5580 l-35 -30 -681 0 -681 0 0 -50 0 -50 679 0 679 0 35 -35 c30 -30 42 -35 82 -35 40 0 52 5 81 34 29 29 34 41 34 81 0 40 -5 52 -34 81 -29 29 -41 34 -80 34 -36 0 -52 -6 -79 -30z"/>
    <path d="M10860 5295 l0 -45 555 0 555 0 0 45 0 45 -555 0 -555 0 0 -45z"/>
    <path d="M9985 4626 c-59 -27 -118 -88 -135 -141 -19 -57 -8 -136 26 -192 38 -61 100 -94 181 -96 123 -3 212 79 221 203 8 107 -32 174 -133 221 -73 35 -95 36 -160 5z m173 -131 c31 -33 34 -42 30 -80 -6 -51 -31 -88 -76 -109 -40 -20 -63 -20 -106 -2 -57 24 -83 113 -51 176 22 43 61 61 119 56 42 -3 55 -9 84 -41z"/>
    <path d="M1900 4350 l0 -50 50 0 50 0 0 50 0 50 -50 0 -50 0 0 -50z" style="fill: rgb(0, 244, 244);"/>
    <path d="M 3030 4231.981 L 3030 4079.999 L 3105 4079.999 L 3180 4079.999 L 3180 4231.981 L 3180 4383.963 L 3105 4383.963 L 3030 4383.963 L 3030 4231.981 Z" style="fill: rgb(0, 245, 245);"/>
    <path d="M11040 4170 l0 -40 45 0 45 0 0 40 0 40 -45 0 -45 0 0 -40z"/>
    <path d="M4194 4166 c-40 -40 -43 -70 -11 -117 46 -68 102 -75 158 -19 42 42 39 82 -10 131 -51 51 -89 53 -137 5z"/>
    <path d="M10536 4089 c-33 -39 -33 -69 0 -103 33 -33 68 -33 99 -1 31 30 32 73 4 109 -29 37 -70 35 -103 -5z" style="fill: rgb(0, 253, 253);"/>
    <path d="M5048 3718 c-56 -131 -56 -123 -2 -157 116 -74 535 -226 757 -276 232 -51 407 -77 490 -72 43 3 81 7 83 10 3 2 5 48 6 102 1 116 -1 119 -100 130 -328 34 -744 153 -1188 341 -6 3 -26 -33 -46 -78z"/>
    <path d="M3675 3735 c-14 -13 -25 -36 -25 -50 0 -32 50 -85 80 -85 34 0 70 44 70 85 0 70 -75 101 -125 50z"/>
    <path d="M7865 3668 c-333 -126 -658 -198 -1035 -228 -74 -6 -163 -13 -196 -16 l-62 -5 -4 -63 c-2 -35 -1 -88 2 -117 l5 -54 110 3 c316 8 536 37 825 108 315 77 582 174 596 216 7 25 -79 208 -98 207 -7 -1 -71 -23 -143 -51z"/>
    <path d="M9310 3620 l0 -80 75 0 75 0 0 80 0 80 -75 0 -75 0 0 -80z"/>
    <path d="M9900 3605 l0 -55 50 0 50 0 0 55 0 55 -50 0 -50 0 0 -55z" style="fill: rgb(45, 216, 216);"/>
    <path d="M8780 3066 c0 -346 -4 -537 -10 -541 -31 -19 5 -85 47 -85 38 0 72 67 43 85 -6 4 -10 195 -10 541 l0 534 -35 0 -35 0 0 -534z"/>
    <path d="M4250 2921 c0 -484 -2 -560 -15 -571 -21 -18 -19 -83 3 -103 25 -23 85 -22 105 1 21 23 22 85 2 102 -13 11 -15 87 -15 571 l0 559 -40 0 -40 0 0 -559z"/>
    <path d="M4890 2816 c0 -489 -2 -565 -15 -576 -38 -32 2 -110 56 -110 52 0 91 80 54 110 -13 11 -15 87 -15 576 l0 564 -40 0 -40 0 0 -564z"/>
    <path d="M8380 2831 c0 -431 -2 -500 -15 -511 -38 -32 2 -110 56 -110 52 0 91 80 54 110 -13 11 -15 80 -15 511 l0 499 -40 0 -40 0 0 -499z"/>
    <path d="M4560 2846 c0 -311 -2 -365 -15 -376 -21 -18 -19 -83 3 -103 25 -23 85 -22 105 1 21 23 22 85 2 102 -13 11 -15 65 -15 376 l0 364 -40 0 -40 0 0 -364z"/>
    <path d="M7340 2911 c-87 -27 -163 -104 -181 -186 -17 -75 -7 -200 19 -251 26 -52 89 -108 138 -125 22 -7 75 -13 119 -14 69 0 88 4 140 30 108 54 153 148 143 300 -8 128 -75 211 -190 242 -56 14 -147 16 -188 4z m195 -121 c46 -43 59 -79 59 -160 0 -90 -22 -143 -74 -178 -30 -20 -44 -23 -99 -20 -58 4 -66 7 -97 40 -43 48 -56 98 -48 190 7 69 9 75 50 117 l44 43 69 -4 c57 -3 75 -8 96 -28z"/>
    <path d="M5810 2625 l0 -285 65 0 65 0 0 285 0 285 -65 0 -65 0 0 -285z"/>
    <path d="M6050 2625 l0 -285 55 0 55 0 0 202 c0 136 3 199 10 192 6 -6 59 -95 118 -200 l109 -189 76 -3 77 -3 0 286 0 285 -60 0 -60 0 -2 -206 -3 -206 -115 203 -115 204 -73 3 -72 3 0 -286z"/>
    <path d="M6650 2625 l0 -285 60 0 60 0 0 105 0 105 150 0 150 0 0 45 0 45 -151 0 -152 0 6 68 c4 37 7 77 7 90 0 21 3 22 108 22 59 0 124 3 145 6 35 6 37 8 37 45 l0 39 -210 0 -210 0 0 -285z"/>
  </g>
</svg>